OpenSim_Sub07_EMGBaseline_GRF.mot
version=1
nRows=40
nColumns=19
inDegrees=no
endheader
time	lFx	lFy	lFz	lCOPx	lCOPy	lCOPz	rFx	rFy	rFz	rCOPx	rCOPy	rCOPz	lMx	lMy	lMz	rMx	rMy	rMz
51.21000000	-43.78219819	769.09012593	54.00447216	0.96989003	0	-0.58855429	0.33310441	-0.04263780	0.70822850	0.00097563	0	-0.00064406	0	14.70419468	0	0	0.00034497	0.00000000
51.22000000	-42.25221608	766.79023419	54.96259387	0.96538672	0	-0.58938703	0.37407220	0.00770074	0.47548059	0.00066027	0	-0.00043535	0	14.25062865	0	0	-0.00002825	-0.00000000
51.23000000	-40.72310455	762.60929293	55.85820051	0.96086570	0	-0.59022087	0.37822614	0.02853026	0.43914821	0.00027534	0	-0.00018134	0	13.70397204	0	0	-0.00011377	-0.00000000
51.24000000	-39.46148189	756.82604058	56.29713531	0.95641246	0	-0.59101792	0.35258981	0.01963821	0.43266125	0.00004798	0	-0.00003147	0	13.16506607	0	0	-0.00008432	-0.00000000
51.25000000	-38.41551923	749.88019483	56.19199617	0.95198666	0	-0.59175170	0.33659555	0.04906702	0.45473491	-0.00003390	0	0.00002243	0	12.67765180	0	0	-0.00003802	0.00000000
51.26000000	-37.31783380	742.31829995	55.70956552	0.94742376	0	-0.59239850	0.30712361	0.13152154	0.49351401	-0.00004000	0	0.00002640	0	12.23294134	0	0	-0.00000843	0.00000000
51.27000000	-35.92771357	734.84583486	54.96178160	0.94270037	0	-0.59303749	0.25719425	0.25746677	0.48040658	-0.00002333	0	0.00001538	0	11.86397381	0	0	0.00000322	-0.00000000
51.28000000	-34.32352228	727.94006804	54.08061190	0.93787594	0	-0.59374086	0.20281611	0.36905675	0.42820645	-0.00000827	0	0.00000544	0	11.57485746	0	0	0.00000482	0.00000000
51.29000000	-32.58164389	721.59870819	53.17984042	0.93296559	0	-0.59453627	0.14851423	0.37050922	0.35926887	-0.00000052	0	0.00000034	0	11.32122971	0	0	0.00000304	0.00000000
51.30000000	-30.67730378	715.82085118	52.21508105	0.92782592	0	-0.59544076	0.09661033	0.27226035	0.27092474	0.00000176	0	-0.00000116	0	11.13172129	0	0	0.00000118	0.00000000
51.31000000	-28.56092178	710.83918895	51.13858427	0.92241268	0	-0.59646495	0.05835578	0.17753606	0.18523317	0.00000156	0	-0.00000103	0	11.02726041	0	0	0.00000015	-0.00000000
51.32000000	-26.34891326	706.76473116	50.05366126	0.91668801	0	-0.59758948	0.02847629	0.12252052	0.15272937	0.00000079	0	-0.00000052	0	10.94566709	0	0	-0.00000019	-0.00000000
51.33000000	-24.02793738	703.22820831	49.03512748	0.91057937	0	-0.59874205	0.01211958	0.02617923	0.12657701	0.00000023	0	-0.00000015	0	10.87467632	0	0	-0.00000019	-0.00000000
51.34000000	-21.47209353	699.95669362	48.22009315	0.90410486	0	-0.59987792	0.04155378	-0.18815774	0.10887803	-0.00000002	0	0.00000001	0	10.80557083	0	0	-0.00000011	0.00000000
51.35000000	-18.69235906	697.08119433	47.68664853	0.89744637	0	-0.60097689	0.07950261	-0.45820969	0.16508346	-0.00000008	0	0.00000005	0	10.73983213	0	0	-0.00000004	0.00000000
51.36000000	-15.91893239	694.91617535	47.38576755	0.89088694	0	-0.60204404	0.10594526	-0.56419806	0.26946918	-0.00000007	0	0.00000004	0	10.63420654	0	0	-0.00000000	-0.00000000
51.37000000	-13.29538976	693.67747482	47.18647616	0.88436112	0	-0.60305870	0.10951010	-0.45764615	0.32366365	-0.00000007	0	0.00000004	0	10.47908603	0	0	0.00000002	0.00000000
51.38000000	-10.70237439	693.52398498	46.97048694	0.87777438	0	-0.60396876	0.10622095	-0.32282493	0.36941262	-0.00000011	0	0.00000005	0	10.30370199	0	0	0.00000005	0.00000000
51.39000000	-8.01622145	694.57127508	46.68253649	0.87094625	0	-0.60476704	0.09850603	-0.25489165	0.44667184	-0.00000013	0	0.00000006	0	10.14224708	0	0	0.00000010	-0.00000000
51.40000000	-5.26435173	696.55740672	46.27544145	0.86386684	0	-0.60547427	0.09815387	-0.23149127	0.49222164	-0.00000001	0	0.00000001	0	10.04104623	0	0	0.00000013	-0.00000000
51.41000000	-2.58094623	699.00960056	45.76794138	0.85668694	0	-0.60609009	0.12200266	-0.17829406	0.49245395	0.00000044	0	-0.00000019	0	10.00524347	0	0	0.00000005	0.00000000
51.42000000	0.13471764	701.50576293	45.21298979	0.84954722	0	-0.60661956	0.16032637	-0.11691364	0.49357509	0.00000141	0	-0.00000061	0	10.00983260	0	0	-0.00000036	-0.00000000
51.43000000	2.94571436	703.88551626	44.79625958	0.84249939	0	-0.60704211	0.16284790	-0.05152093	0.48790722	0.00000263	0	-0.00000115	0	9.99389041	0	0	-0.00000128	0.00000000
51.44000000	5.73069646	706.25146879	44.65008044	0.83560900	0	-0.60730707	0.14661791	-0.03605896	0.41873793	0.00000272	0	-0.00000121	0	9.95646117	0	0	-0.00000256	0.00000000
51.45000000	8.23674220	708.85539732	44.77097701	0.82882129	0	-0.60739107	0.13742065	-0.09076193	0.34638835	-0.00000168	0	0.00000066	0	9.92691070	0	0	-0.00000295	-0.00000000
51.46000000	10.57705684	711.69145576	44.98406444	0.82203420	0	-0.60727771	0.13009716	-0.20028393	0.32667172	-0.00001543	0	0.00000660	0	9.93244975	0	0	0.00000067	-0.00000000
51.47000000	12.99079079	714.70024959	45.05452405	0.81532543	0	-0.60699728	0.11789810	-0.31177785	0.30154243	-0.00004084	0	0.00001769	0	9.98709308	0	0	0.00001323	0.00000000
51.48000000	15.58642967	717.72125699	44.85509500	0.80873132	0	-0.60658545	0.09928020	-0.34939530	0.28860461	-0.00006641	0	0.00002910	0	10.10245821	0	0	0.00003793	-0.00000000
51.49000000	18.24462844	720.83606537	44.51573119	0.80222447	0	-0.60607260	0.05754914	-0.31183432	0.33778165	-0.00004828	0	0.00002192	0	10.24743869	0	0	0.00006587	0.00000000
51.50000000	20.94839078	724.16545742	44.17025459	0.79575011	0	-0.60553322	0.02360370	-0.22128315	0.35494926	0.00010416	0	-0.00004329	0	10.41805194	0	0	0.00005765	0.00000000
51.51000000	23.81875744	727.56305364	43.91131516	0.78936006	0	-0.60507854	0.01952719	-0.10503816	0.37413748	0.00050167	0	-0.00021554	0	10.59399647	0	0	-0.00007343	-0.00000000
51.52000000	26.93022070	730.65761241	43.78551495	0.78303342	0	-0.60476049	0.05404231	-0.01176087	0.38736353	0.00113957	0	-0.00049514	0	10.72889920	0	0	-0.00044320	0.00000000
51.53000000	30.13385097	733.14121378	43.83527850	0.77688894	0	-0.60458658	0.14825903	0.01469593	0.39530674	0.00158353	0	-0.00069729	0	10.77242309	0	0	-0.00107726	-0.00000000
51.54000000	33.28132772	734.53580064	43.96062250	0.77071373	0	-0.60448835	0.28914953	-0.10295230	0.44606261	0.00052268	0	-0.00025538	0	10.74894478	0	0	-0.00161461	0.00000000
51.55000000	36.45693885	734.40447469	44.01872736	0.76438238	0	-0.60437595	0.42769410	-0.53652277	0.45270305	-0.00440574	0	0.00186287	0	10.69809212	0	0	-0.00085403	-0.00000000
51.56000000	39.67232280	732.69603998	43.91605319	0.75783342	0	-0.60421782	0.33010867	-1.40012169	0.39607555	-0.01545850	0	0.00666662	0	10.63742013	0	0	0.00351006	0.00000000
51.57000000	42.79550700	729.68700275	43.55830710	0.75127244	0	-0.60402977	-0.42162375	-2.37046750	0.26041206	-0.03057938	0	0.01332848	0	10.58413783	0	0	0.01397514	0.00000000
51.58000000	45.54767572	725.77341676	43.00752901	0.74487015	0	-0.60382706	-2.15244346	-1.96610015	-0.08081309	-0.03492133	0	0.01549098	0	10.53895097	0	0	0.02943833	0.00000000
51.59000000	48.03727602	721.01378477	42.29126145	0.73867964	0	-0.60365912	-4.52480080	3.03570715	-0.51343335	0.00913383	0	-0.00315523	0	10.49316220	0	0	0.03705573	0.00000000
51.60000000	50.49472878	715.22712458	41.47893482	0.73263316	0	-0.60358670	-5.28026001	16.92095869	-0.40826764	0.16035667	0	-0.06839138	0	10.42675437	0	0	0.00172175	0.00000000
